<svg id="Calque_1" data-name="Calque 1" xmlns="http://www.w3.org/2000/svg" viewBox="0 0 3914 3738"><title>Logo Boids 2</title><path d="M3913,1129.43c0-29-42-51.4-83.16-51.4-75.42,0-418.46,55.15-701,146-18.28,5.88-32.62,8.73-43.84,8.73-21.88,0-30.37-10.35-47.47-33.8-20.62-28.26-48.86-67-124.69-99.47-31.29-13.41-67.59-20.22-107.88-20.22-158.69,0-359.31,103.91-477,247.09-.74.89-1.15,1.07-1.19,1.07-10.19,0-45.63-39.77-106.87-190.4-44.79-110.14-90.8-249.61-117.22-355.33-39.65-158.6-154.87-381.59-231.11-529.14-32.53-63-58.23-112.68-64.69-132.08-5-14.94-12.83-22.53-23.33-22.53-6.74,0-13.21,3.35-19.79,10.24-74.29,77.92-226.18,728.17-216.67,927.68,7.8,163.84,137.15,274.63,199.31,327.87,7.35,6.29,15.21,13,21.33,18.63-33.08-11.82-102.35-68.48-194.24-143.65-132.58-108.44-333-272.31-604.29-451.42C589,536.38,345.54,287.68,200.05,139.11,103.14,40.16,62.67,0,34.25,0,27.5,0,15.2,2.53,8.83,19.53c-32.63,87,8.41,986.68,413.72,1473,226.29,271.56,514.84,411,705.77,503.25,110,53.16,196.93,95.15,210.36,134.56,3,9,2.27,17.55-2.49,27.06-18.06,36.13-49.53,80.26-89.39,136.16-109.69,153.81-364,497.53-396.77,773.72s-14.79,207.88-61.78,647.54c0,0-2.65,10.46,1.42,15.82l4,6.43h5.56c8.63,0,13.08-6.9,50.55-53.41,114.32-141.88,462.18-575.38,945.43-670.3,283.17-55.63,634.8-318.25,758.91-712.56,187.72-596.33,258.41-847.75,1087.25-1037.73C3826.87,1224.6,3913,1169.43,3913,1129.43Z"/></svg>